PathFileType	4	(X/Y/Z)	/Users/niels/Desktop/University/Third Semester/Perception and Action/Exam/Gymnastics Motion Tracking/Code for Gym Tracking/Scripts/Analyzed Data/Start Salto/st_salto_bad_id11_3_Sports2D/st_salto_bad_id11_3_Sports2D_px_person00.trc
DataRate	CameraRate	NumFrames	NumMarkers	Units	OrigDataRate	OrigDataStartFrame	OrigNumFrames
29.8051948051948	29.8051948051948	11	22	m	29.8051948051948	38	154
Frame#	Time	Hip			RHip			RKnee			RAnkle			RBigToe			RSmallToe			RHeel			LHip			LKnee			LAnkle			LBigToe			LSmallToe			LHeel			Neck			Head			Nose			RShoulder			RElbow			RWrist			LShoulder			LElbow			LWrist		
		X1	Y1	Z1	X2	Y2	Z2	X3	Y3	Z3	X4	Y4	Z4	X5	Y5	Z5	X6	Y6	Z6	X7	Y7	Z7	X8	Y8	Z8	X9	Y9	Z9	X10	Y10	Z10	X11	Y11	Z11	X12	Y12	Z12	X13	Y13	Z13	X14	Y14	Z14	X15	Y15	Z15	X16	Y16	Z16	X17	Y17	Z17	X18	Y18	Z18	X19	Y19	Z19	X20	Y20	Z20	X21	Y21	Z21	X22	Y22	Z22
38	1.2749455337690632	0.5629864035509109	-0.5041419024000006	0.0	0.5626596438950215	-0.5016502835075323	0.0	0.5859164559003449	-0.6423820495350332	0.0	0.5370252148412544	-0.7728017261869741	0.0	0.5772020753007805	-0.8166756595260108	0.0	0.5689921165267254	-0.815856538134326	0.0	0.5171216551390376	-0.7866945162398051	0.0	0.5640386416714711	-0.5003489868377338	0.0	0.5824140749995662	-0.6419427181248347	0.0	0.5365388176929051	-0.7693439567005267	0.0	0.5791049528074507	-0.8100851776651002	0.0	0.5752388980289618	-0.8064164084026024	0.0	0.5160171231751642	-0.7796556220575878	0.0	0.6713277273156026	-0.37425405867395845	0.0	0.7502607712044896	-0.33626709970581503	0.0	0.725222418183123	-0.3764130757931651	0.0	0.6740969547967887	-0.37993648998133406	0.0	0.738573514661826	-0.4364088418813083	0.0	0.8233466370405338	-0.4670067457213759	0.0	0.6597716819319333	-0.37071134389737775	0.0	0.7078578531714387	-0.43557361327015487	0.0	0.763432865816273	-0.4781135000277996	0.0
39	1.3084967320261438	0.568418848227196	-0.494775623402978	0.0	0.5676970530623999	-0.4928115312101205	0.0	0.58810068368084	-0.6348913291897973	0.0	0.5382437741633924	-0.7654893646508736	0.0	0.5771695205699341	-0.812094000610983	0.0	0.5694641314492573	-0.8106830883646104	0.0	0.5190149319729337	-0.7785616084101236	0.0	0.5706356476231106	-0.4919397710792825	0.0	0.5859677807888374	-0.6342435764079716	0.0	0.5394852318036167	-0.762436974415353	0.0	0.5798091890040851	-0.8054802091702613	0.0	0.577223286542175	-0.8018467821208748	0.0	0.5194588397764541	-0.7727367535755045	0.0	0.6838102661292224	-0.3729440359884458	0.0	0.7643000528696882	-0.3378863966086523	0.0	0.7377127000295994	-0.3772776138432128	0.0	0.685866768096393	-0.37809301124024586	0.0	0.7447075244153146	-0.4402332949984725	0.0	0.8271263526307205	-0.47591188754672825	0.0	0.6727703117732373	-0.3687184504915816	0.0	0.7230830476627237	-0.4384414709142945	0.0	0.7831707367746245	-0.4818999203698681	0.0
40	1.3420479302832244	0.5738369013452511	-0.4851427523351959	0.0	0.5728120647141077	-0.4838360779652008	0.0	0.5911838616696429	-0.6270102338893533	0.0	0.5392570594487774	-0.7572813079923576	0.0	0.5760980787128162	-0.8061907722072649	0.0	0.5685735422843471	-0.8043028950786569	0.0	0.5209880646003249	-0.7693750151977686	0.0	0.5771933036367868	-0.4835284794537987	0.0	0.5905281002156528	-0.6262408604922687	0.0	0.5426080489169594	-0.7547417357443302	0.0	0.5801345709967901	-0.7995102737686817	0.0	0.5786134330997724	-0.7958018947391124	0.0	0.5234521162224084	-0.7648590198775801	0.0	0.6963833393743966	-0.37241022104954713	0.0	0.7787270833893231	-0.3402438606845704	0.0	0.7506502027361888	-0.3789238105069732	0.0	0.6979048412401079	-0.3769558185111781	0.0	0.7508666065195229	-0.44441513438099756	0.0	0.8305808563002969	-0.4847580394760593	0.0	0.6859564153696697	-0.36799854620188066	0.0	0.7388437734458946	-0.44190339067131645	0.0	0.8033675167329761	-0.4848815348949528	0.0
41	1.375599128540305	0.5792628379411627	-0.4756899449567822	0.0	0.5777936708491425	-0.47497157962747716	0.0	0.5949367116987653	-0.6189975749219144	0.0	0.5398157034186706	-0.7483659654648732	0.0	0.5740544300926405	-0.7991733475983701	0.0	0.5663260463109442	-0.7968443446304119	0.0	0.5226437013304381	-0.7592094841818493	0.0	0.5838959369644973	-0.4754571499813798	0.0	0.5960492479249433	-0.6182056642664925	0.0	0.5459062973871572	-0.746474829865445	0.0	0.5800845824642367	-0.7925515374693117	0.0	0.5793174537563456	-0.7886204438914187	0.0	0.5278804467976749	-0.7561059548065556	0.0	0.708697962852965	-0.3722469159505756	0.0	0.7932190463947497	-0.34359379071088936	0.0	0.7633740448539913	-0.38135761519818917	0.0	0.7096051561068295	-0.376232241442799	0.0	0.7568181227812534	-0.4485999820498047	0.0	0.8336963803331838	-0.4935007030401847	0.0	0.6988926568211786	-0.36815674645294	0.0	0.7524147833578362	-0.44571272385510985	0.0	0.8191637965421141	-0.4881955723497924	0.0
42	1.4091503267973857	0.5846154601179204	-0.46686311093535837	0.0	0.5824810282278199	-0.46651737880783395	0.0	0.5992099530520226	-0.6111275483221424	0.0	0.539840626585069	-0.7390625933017723	0.0	0.5712657581328091	-0.7914503678365585	0.0	0.5629971938446495	-0.7886590224079775	0.0	0.5236441075891811	-0.7483561353504127	0.0	0.5905464445846901	-0.46799120142415146	0.0	0.6022212246213592	-0.6104433239860673	0.0	0.549102700143086	-0.7378751592393508	0.0	0.579654840709276	-0.7851171481262682	0.0	0.5793124685718624	-0.7808288275212582	0.0	0.5322576750716681	-0.7466379922056415	0.0	0.7203576243804304	-0.37218645324765637	0.0	0.807187426497141	-0.3478041390438256	0.0	0.7752406098301065	-0.3843511992711575	0.0	0.7203573403359014	-0.37585095601239643	0.0	0.7623583000395294	-0.4525114877225573	0.0	0.836385479120177	-0.5019128064705378	0.0	0.7111353932083362	-0.36874509014794304	0.0	0.7631742996790295	-0.44951709864789147	0.0	0.8295279209348541	-0.49236999387770647	0.0
43	1.4427015250544664	0.5898170792309718	-0.45892585074601294	0.0	0.5869600192318454	-0.4586994072951843	0.0	0.6039751664802109	-0.6036256119482497	0.0	0.5394824567906581	-0.7296006349413924	0.0	0.5680513837260747	-0.7834304689230057	0.0	0.5590709238591269	-0.7801341760093861	0.0	0.5238977686341016	-0.7371093682293306	0.0	0.5967760846670302	-0.4611471014536623	0.0	0.6085536762351309	-0.6031595798731321	0.0	0.5517158684093841	-0.72902366547148	0.0	0.5787694645887612	-0.7775560871981138	0.0	0.5785778044570576	-0.7728298075018749	0.0	0.5359377595483582	-0.736590535711144	0.0	0.7311074125574504	-0.372222052370632	0.0	0.8201144287480805	-0.35235893475050695	0.0	0.7858852028965105	-0.3875458319928019	0.0	0.7298653178622375	-0.37601573796460025	0.0	0.7674472594615825	-0.4561082249453837	0.0	0.8386366853203283	-0.5097597771379028	0.0	0.7225141464862352	-0.36949428538558377	0.0	0.7716694467034435	-0.45305544272301274	0.0	0.835482713143521	-0.497378150717513	0.0
44	1.4762527233115468	0.5949120079061812	-0.45183313991016444	0.0	0.5915159789952827	-0.45151828714710257	0.0	0.6092613106420418	-0.5965597178082878	0.0	0.5390065937991317	-0.7198949267631914	0.0	0.564667201650858	-0.7752665886138439	0.0	0.5550065828922214	-0.7714135480336147	0.0	0.5235547464054284	-0.72547971686143	0.0	0.6024795205055032	-0.4546545002377136	0.0	0.6147018128898561	-0.5963348511952761	0.0	0.5534111697364252	-0.7197245129464833	0.0	0.5772640022268846	-0.7698273927467424	0.0	0.5770707116585324	-0.7646288887162015	0.0	0.5384616117925706	-0.7259186302155042	0.0	0.7410559759672488	-0.3724723525883949	0.0	0.8318914727039254	-0.3568608962750091	0.0	0.7953737596859106	-0.3906875273791705	0.0	0.7382639889340429	-0.37697968482213573	0.0	0.7722061449808022	-0.4595976398290367	0.0	0.8405238116185564	-0.5170432812189183	0.0	0.7332487835842834	-0.3702868467634864	0.0	0.77876822911697	-0.45626556097089005	0.0	0.8386382933324137	-0.5030000611308619	0.0
45	1.5098039215686274	0.6000201759099142	-0.4453276588058899	0.0	0.5964582770842922	-0.4448205970407017	0.0	0.6151017001015241	-0.5898351397601693	0.0	0.5386982285140304	-0.7096603318430655	0.0	0.5612225862216329	-0.7667706069676248	0.0	0.5510801113186028	-0.762310542697642	0.0	0.5229340044832962	-0.7132759707341015	0.0	0.607855577911365	-0.44815049185248246	0.0	0.6206040724032525	-0.5897778210616342	0.0	0.5541596421140084	-0.7096475797965417	0.0	0.5748828227122897	-0.7615461616551039	0.0	0.5747044972496257	-0.7558796134125031	0.0	0.5396765804940151	-0.7144524549849715	0.0	0.7505640366124268	-0.3730652539328914	0.0	0.8427197176306528	-0.36145158755288626	0.0	0.8040807868175772	-0.3938381328225293	0.0	0.7460616748593378	-0.3788777050156891	0.0	0.7768449399746715	-0.4633285801511516	0.0	0.8421803361410426	-0.5240289496926551	0.0	0.7436600052058823	-0.37102525012068044	0.0	0.7850656316009963	-0.45929969840186435	0.0	0.840321447397859	-0.5091133229158719	0.0
46	1.543355119825708	0.6052619081259799	-0.4391185647244867	0.0	0.6019943124641678	-0.4384657616330472	0.0	0.6215151665349568	-0.5833240782289656	0.0	0.5388104181824493	-0.6986859302498987	0.0	0.5577451951725003	-0.7575593478244314	0.0	0.5474387605888099	-0.752459076877488	0.0	0.522396811838542	-0.7003910438225055	0.0	0.613169858894199	-0.44140781134016266	0.0	0.6263598284041066	-0.5832924342094438	0.0	0.5541301607814998	-0.6985347786469821	0.0	0.5713967240628204	-0.752227447690487	0.0	0.57143321037598	-0.7461672416345552	0.0	0.5396256126857	-0.7020666336262853	0.0	0.7599456230230319	-0.374149869190947	0.0	0.8528075879450714	-0.3666888427459885	0.0	0.8123857652796429	-0.3973285448807189	0.0	0.7539360570161611	-0.3817238593402252	0.0	0.7815779395315818	-0.4676041227730412	0.0	0.8437589833621293	-0.5310356247379582	0.0	0.7538555633631576	-0.37165714917693604	0.0	0.7907345632512188	-0.46247350046622837	0.0	0.8412925060660442	-0.5157271945037836	0.0
47	1.5769063180827887	0.6108048905011748	-0.4329408698545997	0.0	0.6082036910181567	-0.4323328390415136	0.0	0.6285010563989739	-0.5769253507356095	0.0	0.5394825482206017	-0.6868391952004846	0.0	0.5542606371794588	-0.7472211839039983	0.0	0.5441729163912269	-0.741473072079722	0.0	0.5221869770426384	-0.6868227894755149	0.0	0.6186405862498806	-0.43437234792456	0.0	0.6321032374136192	-0.5767318721180529	0.0	0.5535705275142986	-0.6862175754296663	0.0	0.5668201523453588	-0.7415280719547319	0.0	0.5673768241984226	-0.7352489153248948	0.0	0.5384879889646865	-0.6886641186614036	0.0	0.7693905628265834	-0.3758962238184066	0.0	0.8623389226228524	-0.37304602266605286	0.0	0.8205107300152674	-0.4015280819314323	0.0	0.7624499521007019	-0.385451933667471	0.0	0.786571122975876	-0.4725260382424021	0.0	0.8453587078112865	-0.5382507510948028	0.0	0.7637943456133506	-0.37229192531619354	0.0	0.7957881905671038	-0.46615606180348973	0.0	0.8418636654698889	-0.5228932069627751	0.0
48	1.6104575163398693	0.6168054154498067	-0.4266667838594371	0.0	0.614968541719827	-0.4263533402495951	0.0	0.635916065766289	-0.5706015600168994	0.0	0.5406808834539233	-0.6740581431638029	0.0	0.5508334954680171	-0.7355404998684544	0.0	0.5413326403395117	-0.7291853402134004	0.0	0.5223675813190063	-0.6726850848355616	0.0	0.6243714377914638	-0.4271886389491312	0.0	0.6378990089752411	-0.5700352173166826	0.0	0.5527794054219228	-0.6727272252440675	0.0	0.5615595772959467	-0.729514087752642	0.0	0.562868168146161	-0.7232660132697717	0.0	0.5366354049171315	-0.6742726790215708	0.0	0.7789073696639818	-0.3784071875670314	0.0	0.871448503092882	-0.38047538893385946	0.0	0.8284176131552902	-0.4066128945616555	0.0	0.7716759330092295	-0.389872720721626	0.0	0.7918236869715265	-0.47788913864120613	0.0	0.8469385739877758	-0.5455861742050229	0.0	0.7733529935382553	-0.373194513263277	0.0	0.800290418004736	-0.47055631773921497	0.0	0.8421508062925349	-0.530498680265128	0.0
